<?xml version="1.0" standalone="no"?>
<!DOCTYPE svg PUBLIC "-//W3C//DTD SVG 20010904//EN"
 "http://www.w3.org/TR/2001/REC-SVG-20010904/DTD/svg10.dtd">
<svg version="1.0" xmlns="http://www.w3.org/2000/svg"
 width="377.000000pt" height="324.000000pt" viewBox="0 0 377.000000 324.000000"
 preserveAspectRatio="xMidYMid meet">

<g transform="translate(0.000000,324.000000) scale(0.100000,-0.100000)"
fill="#000000" stroke="none">
<path d="M2104 3205 c-37 -18 -135 -112 -397 -379 l-347 -355 2 -328 3 -328
113 110 c106 102 117 110 154 110 33 0 45 -7 69 -33 57 -63 51 -73 -156 -282
l-185 -186 0 -333 0 -334 50 47 c40 37 56 46 85 46 47 0 71 -14 91 -52 29 -56
15 -83 -111 -208 l-115 -115 0 -257 0 -256 30 -7 c17 -4 53 0 87 10 57 16 67
25 533 489 261 260 486 481 500 490 36 24 75 20 109 -11 52 -48 46 -96 -23
-170 -75 -81 -90 -115 -90 -193 0 -97 45 -169 134 -216 49 -26 153 -25 202 2
45 23 473 446 495 488 8 16 18 55 20 88 16 172 -138 295 -311 247 -24 -7 -61
-31 -95 -64 -64 -60 -89 -75 -126 -75 -61 0 -107 68 -85 125 6 16 148 164 315
329 331 327 344 344 345 446 0 62 -32 141 -71 177 -37 34 -109 63 -158 63
-106 0 -77 25 -741 -637 l-616 -613 -42 0 c-71 0 -118 66 -92 129 6 15 182
199 392 407 209 209 388 395 398 414 27 52 33 99 20 155 -15 70 -51 120 -113
155 -43 24 -63 30 -115 30 -34 0 -79 -7 -99 -15 -20 -8 -78 -57 -130 -107 -86
-85 -97 -93 -133 -93 -56 0 -95 40 -95 95 0 39 7 47 302 343 165 166 309 318
319 337 27 51 25 162 -3 215 -27 51 -57 79 -113 104 -64 29 -143 28 -206 -4z"/>
<path d="M2706 2845 c-53 -19 -85 -44 -121 -94 -25 -36 -30 -54 -33 -115 -5
-87 20 -149 77 -197 155 -128 391 -19 391 180 0 167 -160 281 -314 226z"/>
</g>
</svg>
